<?xml version="1.0" standalone="no"?>
<!DOCTYPE svg PUBLIC "-//W3C//DTD SVG 20010904//EN"
 "http://www.w3.org/TR/2001/REC-SVG-20010904/DTD/svg10.dtd">
<svg version="1.0" xmlns="http://www.w3.org/2000/svg"
 width="1920.000000pt" height="1920.000000pt" viewBox="0 0 1920.000000 1920.000000"
 preserveAspectRatio="xMidYMid meet">
<metadata>
Created by potrace 1.14, written by Peter Selinger 2001-2017
</metadata>
<g transform="translate(0.000000,1920.000000) scale(0.100000,-0.100000)"
fill="#000000" stroke="none">
<path d="M5560 15061 c-78 -24 -141 -79 -176 -156 -21 -45 -24 -65 -24 -187 0
-180 0 -180 -160 -208 -358 -60 -638 -203 -807 -410 -70 -86 -147 -242 -180
-365 -24 -92 -26 -116 -27 -300 -1 -249 21 -361 100 -520 150 -298 436 -483
909 -590 95 -21 125 -32 143 -52 l23 -25 -3 -519 c-3 -478 -4 -520 -20 -536
-26 -25 -82 -20 -198 20 -234 80 -342 194 -385 402 -9 45 -28 99 -43 125 -33
53 -98 105 -150 120 -49 13 -229 11 -269 -3 -60 -22 -117 -72 -148 -128 -27
-49 -30 -62 -29 -144 1 -146 53 -324 136 -468 165 -286 488 -468 944 -533 164
-23 164 -23 164 -193 0 -147 13 -197 66 -259 19 -23 59 -53 89 -67 48 -24 64
-27 133 -24 66 3 86 9 128 34 53 33 107 104 124 163 5 20 10 94 10 163 0 165
1 166 135 185 228 33 446 100 603 186 252 138 401 319 476 580 51 178 58 420
17 608 -90 410 -438 686 -1026 814 -66 15 -130 29 -143 31 -12 3 -31 14 -42
25 -19 19 -20 36 -20 530 l0 511 25 24 c30 31 36 31 138 -3 199 -67 306 -173
352 -348 8 -32 15 -67 15 -79 0 -37 47 -120 90 -158 56 -51 99 -68 190 -74
147 -10 249 32 312 129 27 43 33 64 37 122 4 82 -11 178 -46 291 -107 340
-365 581 -738 690 -74 21 -292 65 -326 65 -5 0 -18 9 -29 20 -18 18 -20 33
-20 148 0 170 -14 217 -84 288 -40 39 -67 56 -106 68 -57 17 -118 19 -160 7z
m-221 -1167 c21 -26 21 -36 21 -510 l0 -483 -32 6 c-79 15 -204 56 -269 89
-90 45 -152 107 -192 192 -28 61 -32 78 -35 187 -9 290 83 425 356 520 91 32
125 32 151 -1z m778 -1740 c178 -45 316 -139 368 -250 64 -135 51 -357 -29
-482 -65 -102 -211 -192 -377 -232 -107 -25 -115 -25 -144 5 l-25 24 0 456 c0
304 4 463 11 476 6 11 20 24 32 29 25 9 35 8 164 -26z"/>
<path d="M13466 15054 c-33 -11 -65 -32 -102 -68 -70 -71 -84 -118 -84 -288 0
-146 -7 -162 -77 -173 -334 -55 -542 -133 -727 -272 -199 -149 -320 -362 -362
-636 -20 -130 -13 -354 15 -479 66 -292 249 -516 541 -663 113 -57 187 -82
395 -135 127 -33 193 -54 202 -66 17 -23 19 -1034 2 -1065 -5 -11 -21 -24 -34
-29 -35 -13 -160 21 -273 75 -164 79 -241 174 -283 352 -24 103 -45 147 -91
190 -59 57 -109 73 -233 73 -133 0 -187 -20 -253 -95 -79 -90 -88 -181 -37
-381 59 -235 172 -412 343 -541 188 -142 479 -247 769 -278 96 -10 101 -19
105 -195 3 -139 4 -147 32 -198 53 -96 133 -142 244 -142 84 0 155 32 206 92
54 62 66 112 66 264 0 170 0 170 134 190 289 43 513 120 696 239 103 67 234
202 292 300 170 287 185 755 35 1051 -36 71 -138 204 -195 255 -65 58 -210
152 -297 194 -111 52 -285 109 -461 150 -171 40 -188 46 -198 71 -3 8 -6 243
-6 520 l0 505 25 24 c29 30 35 30 121 4 221 -68 337 -188 379 -393 20 -99 34
-133 75 -180 52 -59 120 -88 220 -94 156 -9 258 41 315 153 26 50 30 69 29
129 -5 217 -112 476 -267 642 -187 201 -446 319 -810 370 -78 11 -87 30 -87
193 0 121 -3 141 -24 186 -61 131 -202 193 -340 149z m-206 -1154 c19 -19 20
-33 20 -510 l0 -489 -32 6 c-171 32 -313 99 -392 184 -74 80 -97 142 -103 284
-13 277 82 417 344 515 93 35 136 37 163 10z m723 -1730 c327 -76 468 -221
467 -479 -1 -257 -147 -423 -438 -497 -118 -30 -127 -30 -157 1 l-25 24 0 459
c0 351 3 462 13 474 9 12 44 36 54 38 1 0 40 -9 86 -20z"/>
<path d="M6604 8956 c-88 -28 -161 -97 -199 -190 -53 -128 40 -589 191 -943
221 -521 630 -950 1154 -1213 391 -196 822 -308 1400 -362 161 -15 739 -15
900 0 484 46 846 127 1191 267 632 257 1107 711 1358 1297 120 279 212 649
213 850 0 118 -68 225 -178 279 l-49 24 -2970 2 c-2399 1 -2978 -1 -3011 -11z"/>
<path d="M4615 8920 c-326 -27 -614 -75 -925 -154 -779 -198 -1525 -576 -2175
-1100 -258 -208 -597 -538 -607 -590 -8 -42 8 -88 43 -122 25 -24 39 -29 77
-29 43 0 59 8 152 72 1162 803 2317 1288 3490 1467 404 62 726 86 1145 86 256
0 294 2 324 18 74 37 91 137 33 195 -33 33 -87 48 -323 91 -282 51 -460 67
-804 71 -176 2 -369 -1 -430 -5z"/>
<path d="M13850 8919 c-234 -19 -618 -79 -761 -119 -80 -22 -119 -109 -81
-180 36 -67 52 -70 377 -70 419 0 741 -24 1145 -86 866 -132 1723 -431 2573
-898 256 -141 657 -387 657 -403 0 -11 -266 -320 -428 -498 -251 -274 -815
-825 -845 -825 -5 0 -64 44 -131 98 -906 733 -1908 1184 -2925 1317 -170 22
-185 21 -229 -19 -34 -32 -37 -39 -37 -90 0 -76 29 -106 133 -136 591 -173
1182 -431 1712 -748 198 -119 570 -368 750 -503 203 -153 329 -252 329 -261 1
-7 -248 -205 -414 -329 -804 -601 -1700 -1107 -2620 -1479 -1112 -449 -2294
-726 -3515 -824 -426 -35 -603 -41 -1205 -40 -930 2 -1626 34 -2320 110 -1366
149 -2323 440 -3376 1027 -228 128 -676 392 -697 412 -12 10 14 42 148 181
758 792 1594 1444 2410 1880 426 228 907 427 1352 559 158 47 183 68 183 151
0 51 -3 58 -37 90 -44 40 -59 41 -229 19 -1501 -196 -2973 -1095 -4101 -2505
-55 -69 -104 -129 -108 -133 -4 -4 -93 44 -199 107 -105 63 -191 114 -191 112
0 -10 94 -245 140 -351 29 -66 53 -124 53 -130 0 -5 -61 -100 -134 -210 -138
-206 -262 -409 -368 -600 -68 -122 -76 -164 -40 -209 40 -51 101 -68 153 -45
14 7 97 100 185 208 210 259 390 471 399 471 4 0 30 -42 59 -93 80 -142 204
-336 320 -498 998 -1400 2534 -2319 4223 -2528 383 -47 286 -46 3440 -46 2344
0 3016 3 3130 13 1359 120 2498 591 3529 1459 150 126 538 514 664 664 261
309 499 647 658 931 30 54 57 97 61 98 9 0 188 -210 399 -471 88 -108 171
-201 185 -208 52 -23 113 -6 153 45 36 45 28 87 -40 209 -105 190 -227 389
-365 597 -74 111 -134 207 -134 214 0 7 24 68 54 137 214 490 370 1049 445
1592 48 343 53 446 58 1215 3 404 3 733 0 730 -3 -3 -52 -75 -108 -160 -127
-190 -310 -440 -322 -440 -4 0 -47 35 -95 78 -267 238 -620 492 -941 676 -750
431 -1533 674 -2371 736 -158 12 -559 11 -710 -1z"/>
</g>
</svg>
